<svg id="Layer_1" data-name="Layer 1" xmlns="http://www.w3.org/2000/svg" xmlns:xlink="http://www.w3.org/1999/xlink" viewBox="0 0 900 178.31"><defs><style>.cls-1{fill:none;}.cls-2{clip-path:url(#clip-path);}.cls-3{fill:url(#linear-gradient);}.cls-4{fill:#26b069;}.cls-5{fill:#d4d9d6;}.cls-6{fill:#2b9961;}.cls-7{fill:#cc734f;}.cls-8{fill:#cc5c36;}.cls-9{fill:#bf704d;}.cls-10{fill:#fff;}.cls-11{fill:#d18261;}</style><clipPath id="clip-path"><rect class="cls-1" width="900" height="178.31"/></clipPath><linearGradient id="linear-gradient" x1="-0.18" y1="-60.85" x2="1.19" y2="-60.85" gradientTransform="translate(206.78 30450.92) scale(499)" gradientUnits="userSpaceOnUse"><stop offset="0" stop-color="#48ba5f"/><stop offset="0.01" stop-color="#48ba5f"/><stop offset="0.47" stop-color="#b3ed5f"/><stop offset="1" stop-color="#84c7a3"/></linearGradient></defs><title>Logo-Grow</title><g class="cls-2"><path class="cls-3" d="M145.31,143.52A17.82,17.82,0,0,1,132.78,139q-4-3.3-7.3-11.29a64.6,64.6,0,0,1-3.31-14.74,118.44,118.44,0,0,1-1-14.6c-.1-1.19-.14-3.26-.14-6.2V82q0-5.92.41-14.19a99.75,99.75,0,0,1,2.21-14.32,36.56,36.56,0,0,1,5.23-12.12,18.79,18.79,0,0,1,9.23-7.44,24.1,24.1,0,0,1,6.47-1q5.79,0,5.79,3.85a3,3,0,0,1-1,2.42,4,4,0,0,1-2.68.89,8.25,8.25,0,0,1-1.93-.41l-1.93-.28A7.44,7.44,0,0,0,138.15,41a11.77,11.77,0,0,0-3.45,4.61,49.28,49.28,0,0,0-4.27,14.46,125.45,125.45,0,0,0-1.65,16.81q-.27,6.19-.27,13.08v3.72c-.1,1.29-.14,2.89-.14,4.82a135.2,135.2,0,0,0,.69,13.77,42,42,0,0,0,3,13.78q2.19,6.47,7.16,9.09a11.22,11.22,0,0,0,5.78,1.37q6.06,0,10.2-5.78-.15-4.82-.69-9.44T152.89,115a4.82,4.82,0,0,0-.62.07l-1.45.2-3.31.28q-4.68,0-4.68-4a2.71,2.71,0,0,1,1.38-2.2,9.28,9.28,0,0,1,3.72-1.38,28.81,28.81,0,0,1,6.88-1,5,5,0,0,1,4.27,2.06,8.65,8.65,0,0,1,1.52,5.24,76.11,76.11,0,0,0,1.38,12.4A74.39,74.39,0,0,1,163.35,139a3.87,3.87,0,0,1-1,2.62,3,3,0,0,1-2.34,1.1,4.64,4.64,0,0,1-4.69-2.89v-.14l-3,1.52A14.94,14.94,0,0,1,145.31,143.52Zm56.06-1.24q-3,0-5.51-6.61a75.3,75.3,0,0,1-4.27-14.74l-1-4.68q-4-19.69-5.09-22.45h-1.65q0,4-.14,7.3v7.57q0,18.47,2.61,28.79l-1.51,3.72H181l-1.79-2.07.14-9.23q0-12.39-1.24-37.6Q177,65.43,177,54.68q0-6.61,4.54-6.61,7.44,0,12.19,3.86t4.76,10.74v9.64a19.84,19.84,0,0,1-.69,4.75,22.35,22.35,0,0,1-1.52,4.34l-2.62,5-2.2,4.13.69,3.31,1.93,9.78q1.92,10.61,3.72,17.21a68.14,68.14,0,0,0,4.4,12l.83,1.65a10.65,10.65,0,0,1,1.38,4.41,3.77,3.77,0,0,1-.83,2.41A2.68,2.68,0,0,1,201.37,142.28ZM184.43,87.05q3-1.51,5.16-8.34a42.46,42.46,0,0,0,2.14-12.6,29.71,29.71,0,0,0-1.11-8.26,6,6,0,0,0-6.19-4.55l-.28.69-.27,1.24.27,16.25Q184.42,78.65,184.43,87.05Zm52.34,55.51a10.78,10.78,0,0,1-6.62-2.28,16.88,16.88,0,0,1-5-6.13,54.34,54.34,0,0,1-5-18.32,136.81,136.81,0,0,1-1.24-18,23.32,23.32,0,0,1,.13-2.75V92.56c0-.46,0-.69-.13-.69V89.39l.13-9.64c.1-2.94.46-7.62,1.11-14a47.7,47.7,0,0,1,3.16-12.81,10.53,10.53,0,0,1,2.48-4.2,4.84,4.84,0,0,1,3.45-1.45,23.77,23.77,0,0,1,9.91,2,20.85,20.85,0,0,1,7.44,5.58,31.52,31.52,0,0,1,4.69,8.47A50.15,50.15,0,0,1,254.12,74,87,87,0,0,1,255,86.22v1.1q0,4.28.13,7.72l.14,7.85Q255.22,142.55,236.77,142.56Zm-.56-5.79a6.43,6.43,0,0,0,4.55-2,12.84,12.84,0,0,0,3.17-5.44,53.76,53.76,0,0,0,3.17-15.15q.68-7,.68-12.12,0-6.19-1-16.25Q246,75.2,246,70V67.49a14.93,14.93,0,0,0-3.51-9.09,10,10,0,0,0-7.92-3.86q-4.68,0-6.2,5.37a36.64,36.64,0,0,0-1.37,11c0,1.75,0,3.22.13,4.41v3.72l-.27,6.33c-.19,1.93-.28,4-.28,6.34q0,7.44.42,14.74a119.63,119.63,0,0,0,2.75,20.11Q231.95,136.77,236.21,136.77ZM283,142.83q-2.75,0-4.82-8.26a142.65,142.65,0,0,1-3-18.12q-1.17-10.8-2.41-27.34-.69-10.74-1.93-23Q270,55.93,268.58,53a4.16,4.16,0,0,1,4-2.48q4.4,0,4.4,9.09,0,10.74,2.9,31.4t3.3,29.89l.69-4.68q1.38-9.23,2.41-17.43T288,81.12q1-10.59,1-20.93l3.72-1.65a4.78,4.78,0,0,1,3,.89A3,3,0,0,1,296.82,62v1.1A144,144,0,0,1,300.47,80q1.44,9.17,2.55,21.56.83,9.51,1.92,17.77,2.63-18.47,2.62-45.45a61.91,61.91,0,0,1,1.1-10.47,72.26,72.26,0,0,0,1-10.33,7.34,7.34,0,0,1-.42-2.34q0-3.31,4.14-3.31a3.87,3.87,0,0,1,2.61.83,2.92,2.92,0,0,1,1,2.34v2.06a13.56,13.56,0,0,1-.42,3.59v.68a41.17,41.17,0,0,0-1.79,12.68v10a239.23,239.23,0,0,1-2.06,25.89q-2.21,16.81-2.21,25.07v2.48a18.15,18.15,0,0,1-.69,5.37,3.71,3.71,0,0,1-4,2.76,4.09,4.09,0,0,1-3.37-1.45,5.56,5.56,0,0,1-1.18-3.65,230.88,230.88,0,0,0-2.34-28.92q-1.23-8-2.61-16.12l-2.21-14.46a58.56,58.56,0,0,0-.55,7.85q0,7.71-1.1,20.39A235.93,235.93,0,0,1,289,129.47Q286.35,142.83,283,142.83Zm89.39-1.24a3.43,3.43,0,0,1-2.41-1,3.1,3.1,0,0,1-1-2.35l.28-13.36q.41-8.94.41-13.36a82.46,82.46,0,0,0-1.24-11.84,73,73,0,0,1-1.38-12,55.47,55.47,0,0,0-1.51-12,96.59,96.59,0,0,0-3.86-12.94A96.8,96.8,0,0,1,358,50.07a55.93,55.93,0,0,1-1.51-11.92,2,2,0,0,1,1.1-1.65,4.31,4.31,0,0,1,2.34-.69q1.52,0,2.89,3.17A55,55,0,0,1,366,49q1.52,6.48,1.79,7.72l1.79,9.5,1.38,6.06q.4-2.2.69-5.78.83-11.45,2.06-19a36.18,36.18,0,0,1,2.21-8c.91-2,2-3,3.3-3q3.72,0,3.72,1.38,0,7.84-3.3,23.14t-3.31,23.27L376,86.5a8.26,8.26,0,0,0-.13,2.48v2.2q0,5.92.41,18.18l.28,18.32.27,3.17.28,3.3v3.45a3.58,3.58,0,0,1-1.38,2.82A4.94,4.94,0,0,1,372.43,141.59Zm45.73,1a10.75,10.75,0,0,1-6.61-2.28,17,17,0,0,1-5-6.13,54.57,54.57,0,0,1-5-18.32,138.54,138.54,0,0,1-1.24-18,23,23,0,0,1,.14-2.75V92.56c0-.46,0-.69-.14-.69V89.39l.14-9.64q.14-4.41,1.1-14a47.72,47.72,0,0,1,3.17-12.81,10.42,10.42,0,0,1,2.48-4.2,4.84,4.84,0,0,1,3.44-1.45,23.82,23.82,0,0,1,9.92,2,20.85,20.85,0,0,1,7.44,5.58,31.78,31.78,0,0,1,4.68,8.47A50.16,50.16,0,0,1,435.52,74a87,87,0,0,1,.82,12.26v1.1q0,4.28.14,7.72l.14,7.85Q436.62,142.55,418.16,142.56Zm-.55-5.79a6.45,6.45,0,0,0,4.55-2,12.83,12.83,0,0,0,3.16-5.44,53.41,53.41,0,0,0,3.17-15.15q.69-7,.69-12.12,0-6.19-1-16.25Q427.4,75.2,427.39,70V67.49a15.06,15.06,0,0,0-3.51-9.09A10,10,0,0,0,416,54.54c-3.13,0-5.19,1.79-6.2,5.37a36.6,36.6,0,0,0-1.38,11c0,1.75.05,3.22.14,4.41v3.72l-.28,6.33c-.18,1.93-.27,4-.27,6.34q0,7.44.41,14.74a120.67,120.67,0,0,0,2.76,20.11Q413.33,136.77,417.61,136.77ZM469.12,142a12.07,12.07,0,0,1-5.92-1.44,11.38,11.38,0,0,1-4.27-4.2,35.49,35.49,0,0,1-4.27-13.09,102.77,102.77,0,0,1-1-15.15q-.42-14.88-.42-36.36l-.13-10.61A17.67,17.67,0,0,1,453,58.4q-.28-5.24-.28-6.34c.83-1.93,1.79-2.89,2.9-2.89s2.08.83,3,2.48a11.33,11.33,0,0,1,1.3,5.37V94.49a146.07,146.07,0,0,0,1,14.59c.64,7.54,1,12.4,1,14.61q0,10.19,8.68,10.19,9.92,0,9.92-74.1v-9a4.26,4.26,0,0,1,.62-3.51,4.27,4.27,0,0,1,3-.76,3.81,3.81,0,0,1,2.82,1A4.6,4.6,0,0,1,488.13,50a23.4,23.4,0,0,1,.14,3.16q0,2.22-.41,7a51.15,51.15,0,0,0-.56,6.89,52.52,52.52,0,0,1-.27,5.64l-.28,5.79v1.1a5.22,5.22,0,0,1,.14,1.24Q486.89,142,469.12,142Zm61.84.28q-3,0-5.5-6.61a74.62,74.62,0,0,1-4.27-14.74l-1-4.68q-4-19.69-5.09-22.45h-1.66c0,2.66,0,5.09-.14,7.3v7.57q0,18.47,2.62,28.79l-1.51,3.72h-3.86l-1.79-2.07.14-9.23q0-12.39-1.24-37.6-1.11-26.85-1.1-37.6,0-6.61,4.54-6.61,7.44,0,12.19,3.86t4.75,10.74v9.64a19.35,19.35,0,0,1-.69,4.75,22.41,22.41,0,0,1-1.51,4.34l-2.62,5-2.2,4.13.69,3.31,1.93,9.78q1.92,10.61,3.71,17.21a68.94,68.94,0,0,0,4.41,12l.83,1.65a10.8,10.8,0,0,1,1.38,4.41,3.77,3.77,0,0,1-.83,2.41A2.68,2.68,0,0,1,531,142.28ZM514,87.05q3-1.51,5.17-8.34a42.42,42.42,0,0,0,2.13-12.6,30.09,30.09,0,0,0-1.1-8.26A6,6,0,0,0,514,53.3l-.27.69-.28,1.24.28,16.25Q514,78.65,514,87.05Zm86.09,56.47A17.86,17.86,0,0,1,587.57,139q-4-3.3-7.3-11.29a64.68,64.68,0,0,1-3.3-14.74,116.6,116.6,0,0,1-1-14.6q-.13-1.78-.13-6.2V82q0-5.92.41-14.19a99.7,99.7,0,0,1,2.2-14.32,36.57,36.57,0,0,1,5.24-12.12A18.79,18.79,0,0,1,593,33.88a24.1,24.1,0,0,1,6.47-1c3.86,0,5.78,1.28,5.78,3.85a3,3,0,0,1-1,2.42,4,4,0,0,1-2.69.89,8.2,8.2,0,0,1-1.92-.41l-1.93-.28A7.44,7.44,0,0,0,593,41a11.77,11.77,0,0,0-3.45,4.61,49.28,49.28,0,0,0-4.27,14.46,125.45,125.45,0,0,0-1.65,16.81q-.29,6.19-.28,13.08v3.72c-.09,1.29-.13,2.89-.13,4.82a135.22,135.22,0,0,0,.68,13.77,42.51,42.51,0,0,0,3,13.78q2.21,6.47,7.17,9.09a11.22,11.22,0,0,0,5.78,1.37q6.06,0,10.19-5.78-.13-4.82-.69-9.44T607.68,115a5,5,0,0,0-.62.07l-1.44.2-3.31.28q-4.68,0-4.68-4a2.72,2.72,0,0,1,1.37-2.2,9.4,9.4,0,0,1,3.72-1.38,28.88,28.88,0,0,1,6.89-1,5,5,0,0,1,4.27,2.06,8.65,8.65,0,0,1,1.52,5.24,75.89,75.89,0,0,0,1.37,12.4A73.51,73.51,0,0,1,618.15,139a3.87,3.87,0,0,1-1,2.62,3,3,0,0,1-2.35,1.1,4.63,4.63,0,0,1-4.68-2.89v-.14l-3,1.52A14.94,14.94,0,0,1,600.11,143.52Zm48.07-1a10.73,10.73,0,0,1-6.61-2.28,16.8,16.8,0,0,1-5-6.13,54.34,54.34,0,0,1-5-18.32,136.81,136.81,0,0,1-1.24-18,21.11,21.11,0,0,1,.14-2.75V92.56c0-.46,0-.69-.14-.69V89.39l.14-9.64q.13-4.41,1.1-14a47.34,47.34,0,0,1,3.17-12.81,10.31,10.31,0,0,1,2.48-4.2,4.8,4.8,0,0,1,3.44-1.45,23.82,23.82,0,0,1,9.92,2,20.91,20.91,0,0,1,7.43,5.58,31.52,31.52,0,0,1,4.69,8.47A50.15,50.15,0,0,1,665.53,74a87,87,0,0,1,.83,12.26v1.1c0,2.85,0,5.42.14,7.72l.13,7.85Q666.63,142.55,648.18,142.56Zm-.55-5.79a6.42,6.42,0,0,0,4.54-2,12.84,12.84,0,0,0,3.17-5.44,53.76,53.76,0,0,0,3.17-15.15q.68-7,.68-12.12,0-6.19-1-16.25Q657.41,75.2,657.4,70V67.49a14.93,14.93,0,0,0-3.51-9.09A10,10,0,0,0,646,54.54q-4.68,0-6.2,5.37a37,37,0,0,0-1.37,11c0,1.75,0,3.22.13,4.41v3.72l-.27,6.33c-.19,1.93-.28,4-.28,6.34q0,7.44.42,14.74a119.63,119.63,0,0,0,2.75,20.11Q643.36,136.77,647.63,136.77Zm63.9,4.41a8.93,8.93,0,0,1-4.68-1c-1-.64-1.51-1.83-1.51-3.58a118.15,118.15,0,0,0-1.38-14l-.55-2.89-13.64-2.07q-.82,3.18-2.34,12.81-.82,6.75-2.62,9a3.29,3.29,0,0,1-2.75,1.24,4.94,4.94,0,0,1-3-1,3.07,3.07,0,0,1-1.38-2.54l.28-.69.13-.55A610.16,610.16,0,0,0,691.84,66a17.94,17.94,0,0,1,.14-1.85c.09-.88.18-2.14.27-3.79.28-3.4.57-6.11.9-8.13a10.54,10.54,0,0,1,1.58-4.54h4.68a5.91,5.91,0,0,1,3.31.89,2.87,2.87,0,0,1,1.38,2.55q0,10.47,2.89,31.13,2.75,21.21,2.75,29.75a32.21,32.21,0,0,0,.69,4.27,25.62,25.62,0,0,1,.69,4.13c0,.64.46,3.4,1.38,8.26a61.66,61.66,0,0,1,1.24,8.54v.14Q713.74,140.35,711.53,141.18Zm-9.09-26.45a26.88,26.88,0,0,1-.41-5.09A289.18,289.18,0,0,0,699.83,78l-1.38-14.33q-5.93,32.37-8.13,48.9Q692.39,113.91,702.44,114.73Zm47.11,27.41a39.26,39.26,0,0,0-12.26-1.65,8.68,8.68,0,0,1-4.68,1.38,3.55,3.55,0,0,1-2.83-1.45,4.84,4.84,0,0,1-1.17-3.1q0-11.56,1-30.85.82-20.52.82-30.72v-1q-.82-8.69-.82-13,0-13.08,4.82-13.08a3.52,3.52,0,0,1,3.44,3.44,52.41,52.41,0,0,1-.41,5.23,47.16,47.16,0,0,0-.42,5.24q0,9.22.14,16.66t.14,16.53a19.08,19.08,0,0,0-.69,5.79v1.65l-.27,10.88q-.29,4.83-.28,11,0,9.51,4.55,9.5c.18,0,.48,0,.89-.06a15.4,15.4,0,0,1,1.72-.07,30.12,30.12,0,0,1,3.17-.14q7.44,0,7.44,4.13a2.86,2.86,0,0,1-1.24,2.34A6.45,6.45,0,0,1,749.55,142.14Zm20.94-.27a9,9,0,0,1-4.21-1.8,5.2,5.2,0,0,1-2-3.58l1.51-2.34a10.53,10.53,0,0,1,2.62.55,17.21,17.21,0,0,0,3.17.42,5.94,5.94,0,0,0,4.47-2.21,13.88,13.88,0,0,0,3-5.78,46.05,46.05,0,0,0,1.79-11.85q0-9.09-5.79-19.14l-1.51-2.62q-2.62-4.55-4.41-8.13a46.51,46.51,0,0,1-3-7.71,36.41,36.41,0,0,1-1.66-10.74,32.83,32.83,0,0,1,2.76-12.67,13.06,13.06,0,0,1,3.93-5.17,9,9,0,0,1,5.71-2,7.61,7.61,0,0,1,4.62,1.59,4.64,4.64,0,0,1,2.13,3.79,2.22,2.22,0,0,1-1,1.92,3.89,3.89,0,0,1-2.35.69,5.54,5.54,0,0,1-2.89-.82q-3,.13-4.82,5.37a27.73,27.73,0,0,0-1.51,8,27.3,27.3,0,0,0,1.24,8.05,34.46,34.46,0,0,0,3.16,7.37l3,5.51,4.82,9.09a39.82,39.82,0,0,1,3.1,9,46,46,0,0,1,1.17,10.33,34.73,34.73,0,0,1-3.85,16,15.79,15.79,0,0,1-5.44,6.2,13.74,13.74,0,0,1-7.78,2.34Z"/><path class="cls-4" d="M48.44,86.15,48.91,36a1.24,1.24,0,1,0-2.48,0L46,86.13a1.25,1.25,0,0,0,1.23,1.25,1.24,1.24,0,0,0,1.25-1.23"/><path class="cls-4" d="M47.64,52.43,39.91,44.7a.41.41,0,0,0-.58.58L47.06,53a.41.41,0,0,0,.58-.58"/><path class="cls-4" d="M42.17,47.88s.48-9.6-6.79-13.81-14.81,0-14.81,0,5.08,19.51,21.6,13.81"/><polygon class="cls-5" points="41.99 47.94 41.86 47.99 42.1 48.14 42.1 48.06 41.99 47.94"/><polyline class="cls-6" points="42.11 47.9 41.99 47.95 42.1 48.06 42.11 47.9"/><path class="cls-6" d="M28.24,32.45a17.63,17.63,0,0,0-7.58,1.79L41.86,48l.13-.05.12,0c0-1.49-.21-9.75-6.8-13.57a13.88,13.88,0,0,0-7.07-1.88"/><path class="cls-4" d="M46,71.52S46.14,67,42.69,65a7.56,7.56,0,0,0-7,0S38.16,74.27,46,71.52"/><polyline class="cls-5" points="45.91 71.53 45.8 71.57 45.91 71.64 45.91 71.53"/><path class="cls-6" d="M39.36,64.27a8.39,8.39,0,0,0-3.62.87L45.8,71.57l.11,0c0-.71-.13-4.61-3.25-6.39a6.53,6.53,0,0,0-3.3-.87"/><path class="cls-4" d="M47.81,58.86l8.41-7a.42.42,0,0,0-.53-.64l-8.41,7a.4.4,0,0,0-.05.58.41.41,0,0,0,.58,0"/><path class="cls-4" d="M75.91,41.72s-19.52-5-22.56,12.18c0,0,8.16,5.08,15.37.77s7.19-13,7.19-13"/><path class="cls-5" d="M53.61,52.64l-.26.13c0,.17-.08.34-.11.51l.28-.23.09-.41"/><path class="cls-6" d="M53.52,53.05l-.28.23c0,.14-.06.29-.08.43l.2.12c0-.26.1-.52.16-.78"/><path class="cls-6" d="M75.72,41.72,53.61,52.64c0,.13-.07.27-.09.41s-.11.52-.16.78a18.76,18.76,0,0,0,8.71,2.39,12.46,12.46,0,0,0,6.46-1.74c6.59-3.93,7.14-11.48,7.19-12.76"/><path class="cls-4" d="M58.83,73.92s-9.12-2.35-10.54,5.69c0,0,3.81,2.38,7.18.36a7.49,7.49,0,0,0,3.36-6"/><path class="cls-6" d="M48.41,79l-.12.06-.09.44.09,0c0-.19.08-.38.12-.55"/><path class="cls-6" d="M58.74,73.92,48.41,79l-.12.55a8.82,8.82,0,0,0,4.07,1.12,5.87,5.87,0,0,0,3-.81,7.44,7.44,0,0,0,3.36-6"/><path class="cls-7" d="M97.7,89.86V102.7a5,5,0,0,1-5,5H87.9v16.8a21.52,21.52,0,0,1-21.45,21.45H31.25A21.51,21.51,0,0,1,9.81,124.46v-16.8H5a5,5,0,0,1-5-5V89.86a5,5,0,0,1,5-5H92.74a5,5,0,0,1,5,5"/><path class="cls-8" d="M97.7,98.42v4.3a5,5,0,0,1-4.94,4.94H4.94A5,5,0,0,1,0,102.72v-4.3Z"/><path class="cls-9" d="M87.41,107.8,31.28,145.7H66.17a21.31,21.31,0,0,0,21.24-21.24Z"/><path class="cls-10" d="M82.38,138.78a21.42,21.42,0,0,1-15.93,7.13H31v.2H66.17a21.63,21.63,0,0,0,16.21-7.33"/><path class="cls-11" d="M87.83,107.66h-.42v16.8A21.31,21.31,0,0,1,66.17,145.7H31v.21H66.45a21.4,21.4,0,0,0,21.38-21.45Z"/><path class="cls-4" d="M850.75,86.15,851.22,36A1.25,1.25,0,0,0,850,34.71a1.23,1.23,0,0,0-1.25,1.23l-.47,50.19a1.24,1.24,0,0,0,1.22,1.25,1.26,1.26,0,0,0,1.26-1.23"/><path class="cls-4" d="M849.94,52.43l-7.73-7.73a.41.41,0,0,0-.58.58L849.36,53a.41.41,0,1,0,.58-.58"/><path class="cls-4" d="M844.48,47.88s.47-9.6-6.8-13.81-14.81,0-14.81,0S828,53.58,844.48,47.88"/><polygon class="cls-5" points="844.29 47.94 844.17 47.99 844.4 48.14 844.41 48.06 844.29 47.94"/><polyline class="cls-6" points="844.41 47.9 844.29 47.95 844.41 48.06 844.41 47.9"/><path class="cls-6" d="M830.54,32.45A17.68,17.68,0,0,0,823,34.24L844.17,48l.12-.05.12,0c0-1.49-.21-9.75-6.8-13.57a13.86,13.86,0,0,0-7.07-1.88"/><path class="cls-4" d="M848.25,71.52S848.44,67,845,65a7.56,7.56,0,0,0-7,0s2.47,9.21,10.26,6.46"/><polyline class="cls-5" points="848.22 71.53 848.1 71.57 848.22 71.64 848.22 71.53"/><path class="cls-6" d="M841.66,64.27a8.43,8.43,0,0,0-3.62.87l10.06,6.43.12,0c0-.71-.13-4.61-3.26-6.39a6.53,6.53,0,0,0-3.3-.87"/><path class="cls-4" d="M850.11,58.86l8.41-7a.4.4,0,0,0,.05-.58.41.41,0,0,0-.58-.06l-8.41,7a.41.41,0,1,0,.53.63"/><path class="cls-4" d="M878.21,41.72s-19.52-5-22.56,12.18c0,0,8.16,5.08,15.38.77s7.18-13,7.18-13"/><path class="cls-5" d="M855.91,52.64l-.26.13c0,.17-.07.34-.11.51l.28-.23.09-.41"/><path class="cls-6" d="M855.82,53.05l-.28.23c0,.14,0,.29-.08.43l.2.12c.05-.26.1-.52.16-.78"/><path class="cls-6" d="M878,41.72,855.91,52.64l-.09.41c-.06.26-.11.52-.16.78a18.81,18.81,0,0,0,8.72,2.39,12.48,12.48,0,0,0,6.46-1.74C877.43,50.55,878,43,878,41.72"/><path class="cls-4" d="M861.13,73.92s-9.12-2.35-10.54,5.69c0,0,3.81,2.38,7.18.36a7.45,7.45,0,0,0,3.36-6"/><path class="cls-6" d="M850.71,79l-.12.06-.09.44.1,0c0-.19.07-.38.11-.55"/><path class="cls-6" d="M861,73.92,850.71,79c0,.18-.08.36-.11.55a8.74,8.74,0,0,0,4.07,1.12,5.92,5.92,0,0,0,3-.81,7.45,7.45,0,0,0,3.35-6"/><path class="cls-7" d="M900,89.86V102.7a5,5,0,0,1-5,5H890.2v16.8a21.52,21.52,0,0,1-21.45,21.45H833.56a21.52,21.52,0,0,1-21.45-21.45v-16.8h-4.85a5,5,0,0,1-5-5V89.86a5,5,0,0,1,5-5H895a5,5,0,0,1,5,5"/><path class="cls-8" d="M900,98.42v4.3a5,5,0,0,1-4.94,4.94H807.24a5,5,0,0,1-4.94-4.94v-4.3Z"/><path class="cls-9" d="M889.72,107.8l-56.13,37.9h34.88a21.3,21.3,0,0,0,21.25-21.24Z"/><path class="cls-10" d="M884.68,138.78a21.41,21.41,0,0,1-15.93,7.13H833.28v.2h35.19a21.6,21.6,0,0,0,16.21-7.33"/><path class="cls-11" d="M890.13,107.66h-.41v16.8a21.3,21.3,0,0,1-21.25,21.24H833.28v.21h35.47a21.4,21.4,0,0,0,21.38-21.45Z"/></g></svg>