<svg id="Layer_1" data-name="Layer 1" xmlns="http://www.w3.org/2000/svg" viewBox="0 0 236.44 172.25"><defs><style>.cls-1{fill:none;stroke:#27af68;stroke-linecap:round;stroke-width:6px;}.cls-1,.cls-6{stroke-miterlimit:10;}.cls-2{fill:#27af68;}.cls-3{fill:#3c4c43;opacity:0.22;}.cls-4{fill:#cc744e;}.cls-5{fill:#cc5d36;}.cls-6{fill:#4f423f;stroke:#fff;opacity:0.1;}</style></defs><title>plant-stage-1</title><line class="cls-1" x1="118.55" y1="24.1" x2="118.55" y2="4.89"/><path class="cls-2" d="M131.44,7.75s-8.77-1.87-9.8,5.84c0,0,3.73,2.1,6.85.05A7.11,7.11,0,0,0,131.44,7.75Z"/><path class="cls-3" d="M121.62,13.09c0,.14-.05.28-.07.42s3.73,2.1,6.85.05a7.09,7.09,0,0,0,3-5.81"/><path class="cls-2" d="M115.11,7.33s.21-4.49-3.19-6.46a7.49,7.49,0,0,0-6.93,0s2.39,9.12,10.12,6.45Z"/><path class="cls-3" d="M115.07,7.45S115.29,3,111.89,1A7.47,7.47,0,0,0,105,1Z"/><path class="cls-4" d="M236.44,36.1V67.19a12,12,0,0,1-12,12H212.72v40.65a52.06,52.06,0,0,1-51.91,51.91H75.64a52.06,52.06,0,0,1-51.91-51.91V79.19H12a12,12,0,0,1-12-12V36.1a12,12,0,0,1,12-12H224.44A12,12,0,0,1,236.44,36.1Z"/><path class="cls-5" d="M236.44,56.82V67.23a12,12,0,0,1-12,12H12a12,12,0,0,1-12-12V56.82"/><path class="cls-6" d="M212.05,79.19v40.65a52.06,52.06,0,0,1-51.91,51.91H75"/></svg>