<svg id="Layer_1" data-name="Layer 1" xmlns="http://www.w3.org/2000/svg" viewBox="0 0 1481 568"><defs><style>.cls-1,.cls-7{fill:none;stroke:#27af68;stroke-linecap:round;}.cls-1,.cls-6,.cls-7{stroke-miterlimit:10;}.cls-1{stroke-width:6px;}.cls-2{fill:#27af68;}.cls-3{fill:#3c4c43;opacity:0.22;}.cls-4{fill:#cc744e;}.cls-5{fill:#cc5d36;}.cls-6{fill:#4f423f;stroke:#fff;opacity:0.1;}.cls-7{stroke-width:2px;}.cls-8{fill:#bf046b;}.cls-9{fill:#d80b7c;}.cls-10{fill:#cc0d76;}.cls-11{fill:#c06;}</style></defs><title>Plant_Life</title><line class="cls-1" x1="242.94" y1="362.21" x2="242.94" y2="343"/><path class="cls-2" d="M255.84,345.86S247.06,344,246,351.7c0,0,3.73,2.11,6.85.06A7.15,7.15,0,0,0,255.84,345.86Z"/><path class="cls-3" d="M246,351.2c0,.14,0,.28-.07.42s3.73,2.11,6.86.05a7.1,7.1,0,0,0,2.95-5.81"/><path class="cls-2" d="M239.5,345.44s.21-4.49-3.19-6.45a7.47,7.47,0,0,0-6.92,0s2.38,9.12,10.11,6.44Z"/><path class="cls-3" d="M239.46,345.56s.22-4.49-3.18-6.45a7.41,7.41,0,0,0-6.85,0Z"/><path class="cls-4" d="M360.83,374.21V405.3a12,12,0,0,1-12,12H337.11V458a52.06,52.06,0,0,1-51.91,51.91H200A52.06,52.06,0,0,1,148.12,458V417.3H136.39a12,12,0,0,1-12-12V374.21a12,12,0,0,1,12-12H348.83A12,12,0,0,1,360.83,374.21Z"/><path class="cls-5" d="M360.83,394.94v10.4a12,12,0,0,1-12,12H136.35a12,12,0,0,1-12-12v-10.4"/><path class="cls-6" d="M336.44,417.3V458a52.06,52.06,0,0,1-51.91,51.91H199.36"/><line class="cls-7" x1="488.52" y1="337.43" x2="508.88" y2="320.54"/><line class="cls-7" x1="487.06" y1="327.34" x2="468.35" y2="308.63"/><line class="cls-1" x1="488.7" y1="365.21" x2="488.7" y2="307.47"/><path class="cls-2" d="M548.49,300.55s-47.73-10.15-53.31,31.78c0,0,20.26,11.43,37.26.27S548.49,300.55,548.49,300.55Z"/><path class="cls-3" d="M495.07,329.59c-.14.75-.26,1.51-.37,2.3,0,0,20.26,11.43,37.26.28,15.53-10.19,16.08-28.5,16-31.6"/><path class="cls-2" d="M477.69,317.29s5.63-22.56-9.65-36-35.16-6.95-35.16-6.95,2.9,48.71,44.81,42.93Z"/><path class="cls-3" d="M477.4,317.87s5.63-22.56-9.65-36C453.8,269.63,436,274,433,274.81Z"/><path class="cls-4" d="M610.91,374.21V405.3a12,12,0,0,1-12,12H587.19V458a52.06,52.06,0,0,1-51.91,51.91H450.11A52.06,52.06,0,0,1,398.2,458V417.3H386.47a12,12,0,0,1-12-12V374.21a12,12,0,0,1,12-12H598.91A12,12,0,0,1,610.91,374.21Z"/><path class="cls-5" d="M610.91,394.94v10.4a12,12,0,0,1-12,12H386.43a12,12,0,0,1-12-12v-10.4"/><path class="cls-6" d="M586.52,417.3V458a52.06,52.06,0,0,1-51.91,51.91H449.44"/><line class="cls-1" x1="985.41" y1="365.21" x2="985.41" y2="204.76"/><line class="cls-7" x1="985.76" y1="263.34" x2="967.05" y2="244.63"/><path class="cls-2" d="M973.23,251.63s1.15-23.23-16.44-33.43-35.85,0-35.85,0,12.3,47.22,52.29,33.42Z"/><path class="cls-3" d="M973.06,252.25s1.14-23.22-16.45-33.43c-16.06-9.32-32.68-1.6-35.44-.2Z"/><line class="cls-7" x1="986.23" y1="282.43" x2="1006.58" y2="265.54"/><path class="cls-2" d="M1054.88,241.72s-47.24-12.18-54.6,29.48c0,0,19.75,12.28,37.21,1.86S1054.88,241.72,1054.88,241.72Z"/><path class="cls-3" d="M1000.27,268.46c-.16.75-.32,1.5-.46,2.28,0,0,19.75,12.28,37.22,1.86,15.94-9.51,17.27-27.78,17.38-30.88"/><line class="cls-7" x1="984.65" y1="322.78" x2="975" y2="313.13"/><path class="cls-2" d="M978.19,316.74s.59-12-8.48-17.24-18.49,0-18.49,0,6.34,24.35,27,17.23Z"/><path class="cls-3" d="M978.1,317.07s.59-12-8.48-17.25c-8.29-4.8-16.86-.83-18.28-.1Z"/><line class="cls-7" x1="986.23" y1="341.43" x2="996.28" y2="333.09"/><path class="cls-2" d="M1020.13,321.33s-23.33-6-27,14.56c0,0,9.76,6.06,18.38.92S1020.13,321.33,1020.13,321.33Z"/><path class="cls-3" d="M993.16,334.53c-.08.37-.16.75-.22,1.13,0,0,9.75,6.07,18.37.92,7.88-4.7,8.53-13.72,8.59-15.25"/><path class="cls-4" d="M1107.61,374.21V405.3a12,12,0,0,1-12,12h-11.72V458A52.06,52.06,0,0,1,1032,509.86H946.81A52.06,52.06,0,0,1,894.9,458V417.3H883.17a12,12,0,0,1-12-12V374.21a12,12,0,0,1,12-12h212.44A12,12,0,0,1,1107.61,374.21Z"/><path class="cls-5" d="M1107.61,394.94v10.4a12,12,0,0,1-12,12H883.13a12,12,0,0,1-12-12v-10.4"/><path class="cls-6" d="M1083.22,417.3V458a52.06,52.06,0,0,1-51.91,51.91H946.14"/><path class="cls-8" d="M984.74,178.68c-3.63-14.59-8.56-33.32,1.45-39C996.83,147.26,989.61,164,984.74,178.68Z"/><path class="cls-9" d="M981.1,139.81c-5.19,21.83-34,58.92,3.67,68.33C984.49,188,990.27,157.65,981.1,139.81Z"/><path class="cls-10" d="M990.91,139.94c4.35,22,31.78,60.17-6.25,68.15C985.7,188,981.07,157.42,990.91,139.94Z"/><line class="cls-1" x1="737.41" y1="366.32" x2="738.54" y2="244.86"/><line class="cls-7" x1="737.76" y1="285.44" x2="719.05" y2="266.74"/><path class="cls-2" d="M725.23,273.74s1.15-23.23-16.44-33.44-35.85,0-35.85,0,12.3,47.21,52.29,33.42Z"/><path class="cls-3" d="M725.06,274.36s1.14-23.23-16.45-33.43c-16.06-9.32-32.68-1.61-35.44-.2Z"/><path class="cls-2" d="M734.36,330.94s.47-11-7.88-15.74-16.94.12-16.94.12,6,22.27,24.82,15.62Z"/><path class="cls-3" d="M734.28,331.23s.46-11-7.88-15.74c-7.62-4.35-15.45-.65-16.74,0Z"/><line class="cls-7" x1="738.23" y1="299.54" x2="758.58" y2="282.64"/><path class="cls-2" d="M806.88,258.82s-47.24-12.17-54.6,29.49c0,0,19.75,12.28,37.21,1.86S806.88,258.82,806.88,258.82Z"/><path class="cls-3" d="M752.27,285.57c-.16.74-.32,1.5-.46,2.28,0,0,19.75,12.28,37.22,1.86,15.94-9.52,17.27-27.79,17.38-30.88"/><path class="cls-2" d="M765.54,336.76s-22.07-5.69-25.51,13.77c0,0,9.23,5.74,17.39.87S765.54,336.76,765.54,336.76Z"/><path class="cls-3" d="M740,349.25c-.08.35-.15.7-.22,1.07,0,0,9.23,5.74,17.39.87,7.45-4.45,8.07-13,8.12-14.43"/><path class="cls-4" d="M859.61,375.32v31.09a12,12,0,0,1-12,12H835.89v40.65A52.06,52.06,0,0,1,784,511H698.81a52.06,52.06,0,0,1-51.91-51.91V418.41H635.17a12,12,0,0,1-12-12V375.32a12,12,0,0,1,12-12H847.61A12,12,0,0,1,859.61,375.32Z"/><path class="cls-5" d="M859.61,396v10.41a12,12,0,0,1-12,12H635.13a12,12,0,0,1-12-12V396"/><path class="cls-6" d="M835.22,418.41v40.65A52.06,52.06,0,0,1,783.31,511H698.14"/><line class="cls-1" x1="1234.41" y1="371.3" x2="1234.41" y2="138.98"/><line class="cls-7" x1="1234.76" y1="208.44" x2="1216.05" y2="189.74"/><path class="cls-2" d="M1222.23,196.74s1.15-23.23-16.44-33.44-35.85,0-35.85,0,12.3,47.21,52.29,33.42Z"/><path class="cls-3" d="M1222.06,197.36s1.14-23.23-16.45-33.43c-16.06-9.32-32.68-1.61-35.44-.2Z"/><line class="cls-7" x1="1235.23" y1="227.54" x2="1255.58" y2="210.64"/><path class="cls-2" d="M1303.88,186.82s-47.24-12.17-54.6,29.49c0,0,19.75,12.28,37.21,1.86S1303.88,186.82,1303.88,186.82Z"/><path class="cls-3" d="M1249.27,213.57c-.16.74-.32,1.5-.46,2.28,0,0,19.75,12.28,37.22,1.86,15.94-9.52,17.27-27.79,17.38-30.88"/><line class="cls-7" x1="1236.76" y1="269.44" x2="1218.05" y2="250.74"/><path class="cls-2" d="M1224.37,257.54s1-23.24-16.7-33.31-35.85.29-35.85.29,12.66,47.12,52.55,33Z"/><path class="cls-3" d="M1224.2,258.16s1-23.23-16.7-33.3c-16.14-9.2-32.69-1.36-35.44.07Z"/><line class="cls-7" x1="1232.59" y1="328.82" x2="1221.42" y2="317.65"/><path class="cls-2" d="M1225.19,321.71s.58-13.87-10-19.89-21.4.18-21.4.18,7.56,28.13,31.37,19.71Z"/><path class="cls-3" d="M1225.09,322.08s.58-13.87-10-19.88c-9.63-5.49-19.52-.81-21.16,0Z"/><line class="cls-7" x1="1235.23" y1="286.54" x2="1255.58" y2="269.64"/><path class="cls-2" d="M1303.88,245.82s-47.24-12.17-54.6,29.49c0,0,19.75,12.28,37.21,1.86S1303.88,245.82,1303.88,245.82Z"/><path class="cls-3" d="M1249.27,272.57c-.16.74-.32,1.5-.46,2.28,0,0,19.75,12.28,37.22,1.86,15.94-9.52,17.27-27.79,17.38-30.88"/><path class="cls-4" d="M1356.61,374.32v31.09a12,12,0,0,1-12,12h-11.72v40.65A52.06,52.06,0,0,1,1281,510h-85.17a52.06,52.06,0,0,1-51.91-51.91V417.41h-11.73a12,12,0,0,1-12-12V374.32a12,12,0,0,1,12-12h212.44A12,12,0,0,1,1356.61,374.32Z"/><path class="cls-5" d="M1356.61,395v10.41a12,12,0,0,1-12,12H1132.13a12,12,0,0,1-12-12V395"/><path class="cls-6" d="M1332.22,417.41v40.65A52.06,52.06,0,0,1,1280.31,510h-85.17"/><path class="cls-8" d="M1232.79,103.88c-5.2-17.47-12.26-39.92,2.42-46.85C1250.72,66.09,1240,86.25,1232.79,103.88Z"/><path class="cls-9" d="M1217.2,58.4c.45,26.92-22.1,78.6,24.54,78.37C1235.44,113.46,1233.16,76.43,1217.2,58.4Z"/><path class="cls-10" d="M1252,59c-1.61,26.88,18.68,79.49-27.91,77.24C1231.39,113.23,1235.28,76.33,1252,59Z"/><path class="cls-11" d="M1235,139.62l-.86.1c.15-.95.3-1.91.43-2.91C1234.72,137.77,1234.86,138.71,1235,139.62Z"/><path class="cls-11" d="M1243.1,139.85h0c-45.83,8.64-32.84-46-38.13-72.39,13.87,10.86,22.37,33.06,30,52.72,7.14-20,15.06-42.62,28.73-53.95C1259.75,89.11,1269.85,133,1243.1,139.85Z"/><path class="cls-11" d="M1235,139.62l-.86.1c.15-.95.3-1.91.43-2.91C1234.72,137.77,1234.86,138.71,1235,139.62Z"/></svg>