<svg id="Layer_1" data-name="Layer 1" xmlns="http://www.w3.org/2000/svg" viewBox="0 0 236.44 453.43"><defs><style>.cls-1,.cls-2{fill:none;stroke:#27af68;stroke-linecap:round;}.cls-1,.cls-2,.cls-7{stroke-miterlimit:10;}.cls-1{stroke-width:6px;}.cls-2{stroke-width:2px;}.cls-3{fill:#27af68;}.cls-4{fill:#3c4c43;opacity:0.22;}.cls-5{fill:#cc744e;}.cls-6{fill:#cc5d36;}.cls-7{fill:#4f423f;stroke:#fff;opacity:0.1;}.cls-8{fill:#bf046b;}.cls-9{fill:#d80b7c;}.cls-10{fill:#cc0d76;}.cls-11{fill:#c06;}</style></defs><title>plant-stage-5</title><line class="cls-1" x1="114.24" y1="314.27" x2="114.24" y2="81.95"/><line class="cls-2" x1="114.59" y1="151.41" x2="95.88" y2="132.71"/><path class="cls-3" d="M102.06,139.7s1.15-23.22-16.44-33.43-35.85,0-35.85,0,12.31,47.21,52.29,33.41Z"/><path class="cls-4" d="M101.89,140.33S103,117.1,85.45,106.9c-16.07-9.32-32.68-1.61-35.44-.2Z"/><line class="cls-2" x1="115.06" y1="170.51" x2="135.42" y2="153.61"/><path class="cls-3" d="M183.71,129.79s-47.24-12.17-54.6,29.49c0,0,19.75,12.28,37.21,1.86S183.71,129.79,183.71,129.79Z"/><path class="cls-4" d="M129.11,156.54c-.17.74-.33,1.5-.46,2.28,0,0,19.75,12.28,37.21,1.86,15.95-9.52,17.27-27.79,17.38-30.88"/><line class="cls-2" x1="116.59" y1="212.41" x2="97.88" y2="193.71"/><path class="cls-3" d="M104.2,200.51s1-23.24-16.7-33.31-35.84.29-35.84.29,12.66,47.12,52.54,33Z"/><path class="cls-4" d="M104,201.13s1-23.23-16.7-33.3c-16.13-9.2-32.69-1.36-35.44.07Z"/><line class="cls-2" x1="112.42" y1="271.79" x2="101.26" y2="260.62"/><path class="cls-3" d="M105,264.68s.57-13.87-10-19.89-21.41.17-21.41.17S81.21,273.1,105,264.68Z"/><path class="cls-4" d="M104.92,265.05s.58-13.87-10-19.88c-9.63-5.49-19.51-.81-21.15,0Z"/><line class="cls-2" x1="115.06" y1="229.51" x2="135.42" y2="212.61"/><path class="cls-3" d="M183.71,188.79s-47.24-12.17-54.6,29.49c0,0,19.75,12.28,37.21,1.86S183.71,188.79,183.71,188.79Z"/><path class="cls-4" d="M129.11,215.54c-.17.74-.33,1.5-.46,2.28,0,0,19.75,12.28,37.21,1.86,15.95-9.52,17.27-27.79,17.38-30.88"/><path class="cls-5" d="M236.44,317.29v31.09a12,12,0,0,1-12,12H212.72V401a52.06,52.06,0,0,1-51.91,51.91H75.64A52.06,52.06,0,0,1,23.73,401V360.38H12a12,12,0,0,1-12-12V317.29a12,12,0,0,1,12-12H224.44A12,12,0,0,1,236.44,317.29Z"/><path class="cls-6" d="M236.44,338v10.41a12,12,0,0,1-12,11.95H12A12,12,0,0,1,0,348.42V338"/><path class="cls-7" d="M212.05,360.37V401a52.06,52.06,0,0,1-51.91,51.91H75"/><path class="cls-8" d="M112.62,46.85C107.42,29.38,100.36,6.93,115,0,130.55,9.05,119.86,29.22,112.62,46.85Z"/><path class="cls-9" d="M97,1.37c.45,26.92-22.1,78.6,24.54,78.37C115.27,56.43,113,19.39,97,1.37Z"/><path class="cls-10" d="M131.83,2c-1.61,26.88,18.68,79.49-27.91,77.23C111.22,56.2,115.11,19.3,131.83,2Z"/><path class="cls-11" d="M114.83,82.59c-.28,0-.57.07-.86.09.16-.94.3-1.9.43-2.9C114.55,80.74,114.69,81.68,114.83,82.59Z"/><path class="cls-11" d="M122.94,82.82h0c-45.83,8.64-32.84-46-38.13-72.39,13.87,10.86,22.37,33.06,30,52.72,7.14-20,15.06-42.62,28.73-53.95C139.58,32.08,149.68,76,122.94,82.82Z"/><path class="cls-11" d="M114.83,82.59c-.28,0-.57.07-.86.09.16-.94.3-1.9.43-2.9C114.55,80.74,114.69,81.68,114.83,82.59Z"/></svg>