<svg id="Layer_1" data-name="Layer 1" xmlns="http://www.w3.org/2000/svg" viewBox="0 0 236.44 275.69"><defs><style>.cls-1,.cls-2{fill:none;stroke:#27af68;stroke-linecap:round;}.cls-1,.cls-2,.cls-7{stroke-miterlimit:10;}.cls-1{stroke-width:6px;}.cls-2{stroke-width:2px;}.cls-3{fill:#27af68;}.cls-4{fill:#3c4c43;opacity:0.22;}.cls-5{fill:#cc744e;}.cls-6{fill:#cc5d36;}.cls-7{fill:#4f423f;stroke:#fff;opacity:0.1;}</style></defs><title>plant-stage-3</title><line class="cls-1" x1="114.24" y1="130.55" x2="115.38" y2="9.09"/><line class="cls-2" x1="114.59" y1="49.67" x2="95.88" y2="30.97"/><path class="cls-3" d="M102.06,38s1.15-23.23-16.44-33.43-35.85,0-35.85,0S62.08,51.76,102.06,38Z"/><path class="cls-4" d="M101.89,38.59S103,15.36,85.45,5.16C69.38-4.16,52.77,3.55,50,5Z"/><path class="cls-3" d="M111.19,95.16s.47-11-7.88-15.74-16.93.13-16.93.13,6,22.27,24.81,15.61Z"/><path class="cls-4" d="M111.11,95.46s.47-11-7.88-15.74c-7.62-4.35-15.44-.65-16.74,0Z"/><line class="cls-2" x1="115.06" y1="63.77" x2="135.42" y2="46.87"/><path class="cls-3" d="M183.71,23.05s-47.24-12.17-54.6,29.48c0,0,19.75,12.28,37.21,1.86S183.71,23.05,183.71,23.05Z"/><path class="cls-4" d="M129.11,49.8c-.17.74-.33,1.5-.46,2.28,0,0,19.75,12.28,37.21,1.86,15.95-9.52,17.27-27.79,17.38-30.88"/><path class="cls-3" d="M142.38,101s-22.08-5.68-25.52,13.78c0,0,9.23,5.74,17.39.87S142.38,101,142.38,101Z"/><path class="cls-4" d="M116.86,113.48c-.08.35-.15.7-.21,1.07,0,0,9.22,5.73,17.38.87,7.45-4.45,8.07-13,8.13-14.43"/><path class="cls-5" d="M236.44,139.55v31.09a12,12,0,0,1-12,12H212.72v40.65a52.06,52.06,0,0,1-51.91,51.91H75.64a52.06,52.06,0,0,1-51.91-51.91V182.64H12a12,12,0,0,1-12-12V139.55a12,12,0,0,1,12-12H224.44A12,12,0,0,1,236.44,139.55Z"/><path class="cls-6" d="M236.44,160.27v10.4a12,12,0,0,1-12,12H12a12,12,0,0,1-12-12v-10.4"/><path class="cls-7" d="M212.05,182.63v40.65a52.06,52.06,0,0,1-51.91,51.91H75"/></svg>