<svg id="Layer_1" data-name="Layer 1" xmlns="http://www.w3.org/2000/svg" viewBox="0 0 236.44 370.71"><defs><style>.cls-1,.cls-2{fill:none;stroke:#27af68;stroke-linecap:round;}.cls-1,.cls-2,.cls-7{stroke-miterlimit:10;}.cls-1{stroke-width:6px;}.cls-2{stroke-width:2px;}.cls-3{fill:#27af68;}.cls-4{fill:#3c4c43;opacity:0.22;}.cls-5{fill:#cc744e;}.cls-6{fill:#cc5d36;}.cls-7{fill:#4f423f;stroke:#fff;opacity:0.1;}.cls-8{fill:#bf046b;}.cls-9{fill:#d80b7c;}.cls-10{fill:#cc0d76;}</style></defs><title>plant-stage-4</title><line class="cls-1" x1="114.24" y1="225.56" x2="114.24" y2="65.11"/><line class="cls-2" x1="114.59" y1="123.69" x2="95.88" y2="104.98"/><path class="cls-3" d="M102.06,112s1.15-23.23-16.44-33.43-35.85,0-35.85,0S62.08,125.78,102.06,112Z"/><path class="cls-4" d="M101.89,112.6S103,89.38,85.45,79.17C69.38,69.85,52.77,77.57,50,79Z"/><line class="cls-2" x1="115.06" y1="142.78" x2="135.42" y2="125.89"/><path class="cls-3" d="M183.71,102.07s-47.24-12.18-54.6,29.48c0,0,19.75,12.28,37.21,1.86S183.71,102.07,183.71,102.07Z"/><path class="cls-4" d="M129.11,128.81c-.17.75-.33,1.5-.46,2.28,0,0,19.75,12.28,37.21,1.86,15.95-9.51,17.27-27.78,17.38-30.88"/><line class="cls-2" x1="113.48" y1="183.13" x2="103.83" y2="173.48"/><path class="cls-3" d="M107,177.09s.59-12-8.48-17.24-18.49,0-18.49,0,6.35,24.35,27,17.23Z"/><path class="cls-4" d="M106.93,177.42s.59-12-8.48-17.25c-8.29-4.8-16.86-.83-18.28-.1Z"/><line class="cls-2" x1="115.06" y1="201.78" x2="125.11" y2="193.44"/><path class="cls-3" d="M149,181.68s-23.33-6-27,14.56c0,0,9.75,6.06,18.37.92S149,181.68,149,181.68Z"/><path class="cls-4" d="M122,194.88c-.09.37-.16.75-.23,1.13,0,0,9.75,6.07,18.37.92,7.88-4.7,8.53-13.72,8.59-15.25"/><path class="cls-5" d="M236.44,234.56v31.09a12,12,0,0,1-12,12H212.72V318.3a52.06,52.06,0,0,1-51.91,51.91H75.64A52.06,52.06,0,0,1,23.73,318.3V277.65H12a12,12,0,0,1-12-12V234.56a12,12,0,0,1,12-12H224.44A12,12,0,0,1,236.44,234.56Z"/><path class="cls-6" d="M236.44,255.29v10.4a12,12,0,0,1-12,12H12a12,12,0,0,1-12-12v-10.4"/><path class="cls-7" d="M212.05,277.65V318.3a52.06,52.06,0,0,1-51.91,51.91H75"/><path class="cls-8" d="M113.57,39C109.94,24.44,105,5.71,115,0,125.66,7.61,118.44,24.37,113.57,39Z"/><path class="cls-9" d="M109.93.16c-5.19,21.83-34,58.92,3.67,68.33C113.32,48.37,119.1,18,109.93.16Z"/><path class="cls-10" d="M119.74.29c4.36,22,31.79,60.17-6.25,68.15C114.53,48.35,109.9,17.77,119.74.29Z"/></svg>