<svg id="Layer_1" data-name="Layer 1" xmlns="http://www.w3.org/2000/svg" viewBox="0 0 236.48 240.57"><defs><style>.cls-1{fill:none;stroke:#27af68;stroke-linecap:round;stroke-width:6px;}.cls-1,.cls-4{stroke-miterlimit:10;}.cls-2{fill:#cc744e;}.cls-3{fill:#cc5d36;}.cls-4{fill:#4f423f;stroke:#fff;opacity:0.1;}.cls-4,.cls-6{isolation:isolate;}.cls-5{fill:#27af68;}.cls-6{fill:#3c4c43;opacity:0.22;}</style></defs><title>plant-stage-2</title><line class="cls-1" x1="112.87" y1="95.43" x2="112.87" y2="37.68"/><path class="cls-2" d="M236.48,104.43v31.09a12,12,0,0,1-12,12H212.76v40.65a52.06,52.06,0,0,1-51.91,51.91H75.68a52.06,52.06,0,0,1-51.91-51.91V147.52H12a12,12,0,0,1-12-12V104.43a12,12,0,0,1,12-12H224.48A12,12,0,0,1,236.48,104.43Z"/><path class="cls-3" d="M236.48,125.15v10.4a12,12,0,0,1-12,12H12a12,12,0,0,1-12-12v-10.4"/><path class="cls-4" d="M212.1,147.51v40.65a52.06,52.06,0,0,1-51.91,51.91H75"/><path class="cls-5" d="M166.66,35.76s-47.73-10.15-53.3,31.78c0,0,20.25,11.43,37.25.28S166.66,35.76,166.66,35.76Z"/><path class="cls-6" d="M113.24,64.81c-.14.75-.26,1.51-.37,2.29,0,0,20.26,11.43,37.26.28,15.53-10.19,16.08-28.5,16.06-31.6"/><path class="cls-5" d="M111.86,44.51s5.63-22.57-9.64-36S67.05,1.57,67.05,1.57,70,50.27,111.86,44.5Z"/><path class="cls-6" d="M111.57,45.09s5.63-22.57-9.65-36C88-3.17,70.18,1.17,67.2,2Z"/></svg>